{"title":"Kail aka Kortny - TeenDreams - Hardcore","uid":10817000,"size":509140551,"categoryP":"porn","categoryS":"movie_clips","magnet":"?xt=urn:btih:71cd922d1c950c654db447bcecbd1c70cf4dc0c8&amp;dn=Kail+aka+Kortny+-+TeenDreams+-+Hardcore&amp;tr=udp%3A%2F%2Ftracker.openbittorrent.com%3A80&amp;tr=udp%3A%2F%2Fopen.demonii.com%3A1337&amp;tr=udp%3A%2F%2Ftracker.coppersurfer.tk%3A6969&amp;tr=udp%3A%2F%2Fexodus.desync.com%3A6969","seeders":2,"leechers":0,"uploader":"athklym","files":-1,"time":1408473810,"description":" &lt;a href=&quot;http://bayimg.com/PapiMaaFo&quot; rel=&quot;nofollow&quot; target=&quot;_NEW&quot;&gt;http://bayimg.com/PapiMaaFo&lt;/a&gt;\nKail_aka_Kortny_TeenDreams_Hardcore.mp4\nFormat                                   : MPEG-4\nFormat profile                           : Base Media\nCodec ID                                 : isom\nFile size                                : 486 MiB\nDuration                                 : 25mn 44s\nOverall bit rate                         : 2 638 Kbps\nWriting application                      : Lavf54.6.100\n\nVideo\nID                                       : 1\nFormat                                   : AVC\nFormat/Info                              : Advanced Video Codec\nFormat profile                           : &lt;a class=&quot;__cf_email__&quot; href=&quot;/cdn-cgi/l/email-protection&quot; data-cfemail=&quot;c08da1a9ae808cf3eef1&quot;&gt;[email&amp;#160;protected]&lt;/a&gt;&lt;script cf-hash='f9e31' type=&quot;text/javascript&quot;&gt;\n/* &lt;![CDATA[ */!function(){try{var t=&quot;currentScript&quot;in document?document.currentScript:function(){for(var t=document.getElementsByTagName(&quot;script&quot;),e=t.length;e--;)if(t[e].getAttribute(&quot;cf-hash&quot;))return t[e]}();if(t&amp;&amp;t.previousSibling){var e,r,n,i,c=t.previousSibling,a=c.getAttribute(&quot;data-cfemail&quot;);if(a){for(e=&quot;&quot;,r=parseInt(a.substr(0,2),16),n=2;a.length-n;n+=2)i=parseInt(a.substr(n,2),16)^r,e+=String.fromCharCode(i);e=document.createTextNode(e),c.parentNode.replaceChild(e,c)}}}catch(u){}}();/* ]]&gt; */&lt;/script&gt;\nFormat settings, CABAC                   : Yes\nFormat settings, ReFrames                : 4 frames\nCodec ID                                 : avc1\nCodec ID/Info                            : Advanced Video Coding\nDuration                                 : 25mn 44s\nBit rate                                 : 2 500 Kbps\nWidth                                    : 1 280 pixels\nHeight                                   : 720 pixels\nDisplay aspect ratio                     : 16:9\nFrame rate mode                          : Constant\nFrame rate                               : 23.976 fps\nColor space                              : YUV\nChroma subsampling                       : 4:2:0\nBit depth                                : 8 bits\nScan type                                : Progressive\nBits/(Pixel*Frame)                       : 0.113\nStream size                              : 460 MiB (95%)\nWriting library                          : x264 core 120 r2164 da19765\nEncoding settings                        : cabac=1 / ref=2 / deblock=1:0:0 / analyse=0x1:0x111 / me=hex / subme=6 / psy=1 / psy_rd=1.00:0.00 / mixed_ref=1 / me_range=16 / chroma_me=1 / trellis=1 / 8x8dct=0 / cqm=0 / deadzone=21,11 / fast_pskip=1 / chroma_qp_offset=-2 / threads=6 / sliced_threads=0 / nr=0 / decimate=1 / interlaced=0 / bluray_compat=0 / constrained_intra=0 / bframes=3 / b_pyramid=2 / b_adapt=1 / b_bias=0 / direct=1 / weightb=1 / open_gop=0 / weightp=1 / keyint=30 / keyint_min=3 / scenecut=40 / intra_refresh=0 / rc_lookahead=30 / rc=2pass / mbtree=1 / bitrate=2500 / ratetol=1.0 / qcomp=0.60 / qpmin=0 / qpmax=69 / qpstep=4 / cplxblur=20.0 / qblur=0.5 / ip_ratio=1.40 / aq=1:1.00\nLanguage                                 : Russian\n\nAudio\nID                                       : 2\nFormat                                   : AAC\nFormat/Info                              : Advanced Audio Codec\nFormat profile                           : LC\nCodec ID                                 : 40\nDuration                                 : 25mn 44s\nBit rate mode                            : Constant\nBit rate                                 : 128 Kbps\nChannel(s)                               : 2 channels\nChannel positions                        : Front: L R\nSampling rate                            : 44.1 KHz\nCompression mode                         : Lossy\nStream size                              : 23.6 MiB (5%)\nLanguage                                 : Russian\n\n","torrent":{"xt":"urn:btih:71cd922d1c950c654db447bcecbd1c70cf4dc0c8","amp;dn":"Kail+aka+Kortny+-+TeenDreams+-+Hardcore","amp;tr":["udp%3A%2F%2Ftracker.openbittorrent.com%3A80","udp%3A%2F%2Fopen.demonii.com%3A1337","udp%3A%2F%2Ftracker.coppersurfer.tk%3A6969","udp%3A%2F%2Fexodus.desync.com%3A6969"],"infoHash":"71cd922d1c950c654db447bcecbd1c70cf4dc0c8","infoHashBuffer":{"type":"Buffer","data":[113,205,146,45,28,149,12,101,77,180,71,188,236,189,28,112,207,77,192,200]},"announce":[],"urlList":[]}}